<?xml version="1.0" encoding="utf-8"?>
<!-- Generator: Adobe Illustrator 17.1.0, SVG Export Plug-In . SVG Version: 6.00 Build 0)  -->
<!DOCTYPE svg PUBLIC "-//W3C//DTD SVG 1.1//EN" "http://www.w3.org/Graphics/SVG/1.1/DTD/svg11.dtd">
<svg version="1.1" id="Layer_1" xmlns="http://www.w3.org/2000/svg" xmlns:xlink="http://www.w3.org/1999/xlink" x="0px" y="0px"
	 viewBox="0 0 384.8 510.8" enable-background="new 0 0 384.8 510.8" xml:space="preserve">
 <defs>
    <radialGradient id="RadGradient" x1="0%" y1="0%" x2="0%" y2="100%" gradientUnits="userSpaceOnUse">
      <stop offset="0%" style="stop-color:#00ffce;stop-opacity:1"/>
      <stop offset="100%" style="stop-color:#00a3c9;stop-opacity:1"/>
    </radialGradient>
		<linearGradient id="LinGradient" x1="0%" y1="0%" x2="100%" y2="0%" gradientUnits="userSpaceOnUse">
			<stop offset="0%" style="stop-color:#ffffff;stop-opacity:1"/>
			<stop offset="70%" style="stop-color:#6ef2f9;stop-opacity:1"/>
		</linearGradient>
	</defs>
	<g fill="url(#LinGradient)">
		<path d="M57.3,391.7l2.3-0.3c2.1-0.3,1.8-0.6,1.8-1.2v-35.6c0-0.5,0.6-0.7-2.4-1l-1.7-0.3l-0.2-1.1h18.2
			c12.3,0,18.6,3.3,18.6,10.4c0,7.5-7.7,11.8-19.2,11.8c-1,0-2-0.1-2.8-0.2v16.2c0,0.5,0.4,0.9,2.2,1l2.4,0.3l0.2,1.1H57.2
			L57.3,391.7z M82.7,363.5c0-6.4-2.9-9.8-8.3-9.9l-2.2,0.1v19c0.7,0.1,1.6,0.3,2.5,0.3C79.3,373,82.7,369.1,82.7,363.5z"/>
		<path d="M112.3,388.1l-0.1-0.1c-2.7,3.1-5.4,5.5-8.8,5.5c-3.9,0-7.1-2.9-7.1-6.6c0-4.8,4.2-8,16.2-11l0.1-1.7
			c0.2-5.5-2.3-8.4-6.4-8.4c-2.3,0-4.2,0.8-4.2,1.6c0,0.5,1.8,1.9,1.8,3.8c0,1.8-1.5,3.4-3.8,3.4c-2.1,0-3.8-1.2-3.8-3.1
			c0-4.2,8.3-7.9,14.2-7.9c7.1,0,10,2.9,9.5,10.9l-0.5,11.7c-0.2,2.3,0.6,3.4,2.1,3.4c1,0,1.8-0.8,2.8-1.8l0.6,0.6
			c-1.6,2.1-4.4,5.3-7.5,5.3C114.7,393.6,112.8,391.8,112.3,388.1z M112.2,386.8l0.4-9.7c-7.2,1.7-9,4.3-9,7.3c0,2.8,1.8,4.5,4,4.5
			C109.4,389,110.7,388.3,112.2,386.8z"/>
		<path d="M128.3,391.7c1.9-0.2,2.6-0.3,2.6-1.1v-17.4c0-4-0.4-4.7-2.7-5.2l-1.4-0.3l0.1-0.8l11.6-3.2l-0.1,5.4h0.2
			c3.1-2.6,6.8-5.5,11-5.5c2.1,0,3.8,0.7,5.2,2.1c1.6,1.6,2.2,4.2,2.2,7.3v17.6c0,0.5,0.2,0.8,3.1,1.1l0.9,0.1l0.2,1h-15.3l0.2-1
			l1.2-0.1c2.1-0.2,2.3-0.6,2.3-1.1v-15.7c0-4.9-2-6.3-5.5-6.3c-2.4,0-4.3,1-5.7,1.9v9.5v10.6c0,0.6,0.3,0.8,2.7,1l1.2,0.1l0.1,1H127
			l0.2-1L128.3,391.7z"/>
		<path d="M184.7,388.1c-2.5,3.1-6,5.6-9.9,5.6c-6.6,0-11.7-6-11.7-14c0-10.1,7.7-15.8,15.8-15.8c2.3,0,4.2,0.3,5.8,1
			h0.1V356c0-2.3-0.4-3-2.1-3.4l-2.7-0.7l0.1-0.7l12.1-2.5v38.6c0,2.3,0.3,2.7,1.6,3.1l2.7,0.6l-0.1,0.8l-11.6,1.9v-5.6L184.7,388.1z
			 M184.9,386.5v-15.6c-1.8-3.2-4.4-5.5-6.9-5.5c-4.2,0-6.7,5.3-6.7,12.2c0,6.7,3.1,11.6,7.9,11.6C181.7,389.2,183.4,388,184.9,386.5
			z"/>
		<path d="M198.5,378.7c0-8.3,6.6-15.1,15.8-15.1c9.3,0,15.3,6.7,15.3,14.8c0,8.5-6.6,15.3-15.8,15.3
			C204.4,393.7,198.5,387,198.5,378.7z M221.2,379.4c0-6.4-1.2-10.6-3.2-12.7c-1-1-2.2-1.7-4-1.7c-4.7,0-7.2,5.6-7.2,12.9
			c0,6.4,1,10.7,3.2,12.9c1,1.1,2.4,1.7,4.1,1.7C218.6,392.4,221.2,386.8,221.2,379.4z"/>
		<path d="M233.8,391.7c1.9-0.2,2.6-0.3,2.6-1.1v-17.4c0-4-0.4-4.7-2.7-5.2l-1.4-0.3l0.1-0.8l11.6-3.2l-0.1,9.6h0.2
			c2.3-6.2,4.8-9.7,8.8-9.7c2.7,0,4.7,1.6,4.7,4.4c0,2-1.6,4.1-4,4.1c-2.3,0-3.8-1.5-4.3-3.8c-2.1,0.6-3.7,3.1-5.3,8v14.3
			c0,0.6,0.5,0.8,3.1,1l1.7,0.1l0.2,1h-16.3l0.2-1L233.8,391.7z"/>
		<path d="M276.9,388.1l-0.1-0.1c-2.7,3.1-5.4,5.5-8.8,5.5c-3.9,0-7.1-2.9-7.1-6.6c0-4.8,4.2-8,16.2-11l0.1-1.7
			c0.2-5.5-2.3-8.4-6.4-8.4c-2.3,0-4.2,0.8-4.2,1.6c0,0.5,1.8,1.9,1.8,3.8c0,1.8-1.5,3.4-3.8,3.4c-2.1,0-3.8-1.2-3.8-3.1
			c0-4.2,8.3-7.9,14.2-7.9c7.1,0,10,2.9,9.5,10.9l-0.5,11.7c-0.2,2.3,0.6,3.4,2.1,3.4c1,0,1.8-0.8,2.8-1.8l0.6,0.6
			c-1.6,2.1-4.4,5.3-7.5,5.3C279.2,393.6,277.3,391.8,276.9,388.1z M276.7,386.8l0.4-9.7c-7.2,1.7-9,4.3-9,7.3c0,2.8,1.8,4.5,4,4.5
			C273.9,389,275.2,388.3,276.7,386.8z"/>
		<path d="M292.8,391.7c1.9-0.2,2.6-0.3,2.6-1.1v-17.4c0-4-0.4-4.7-2.7-5.2l-1.4-0.3l0.1-0.8l11.6-3.2l-0.1,5.4h0.2
			c3.1-2.6,6.8-5.5,11-5.5c2.1,0,3.8,0.7,5.2,2.1c1.6,1.6,2.2,4.2,2.2,7.3v17.6c0,0.5,0.2,0.8,3.1,1.1l0.9,0.1l0.2,1h-15.3l0.2-1
			l1.2-0.1c2.1-0.2,2.3-0.6,2.3-1.1v-15.7c0-4.9-2-6.3-5.5-6.3c-2.4,0-4.3,1-5.7,1.9v9.5v10.6c0,0.6,0.3,0.8,2.7,1l1.2,0.1l0.1,1
			h-15.5l0.2-1L292.8,391.7z"/>
		<path d="M57.3,450.2l2.3-0.3c2-0.3,1.8-0.6,1.8-1.2v-35.6c0-0.5,0.6-0.7-2.4-1l-1.7-0.3l-0.2-1.1l20.3-0.1
			c11.4,0,17.1,3.4,17.1,10c0,4.9-3.5,8.8-9.7,10.3l8.1,13.2c2.7,4.5,3.5,5.5,6.2,5.9l0.9,0.2l0.3,1.1H84.9l-1.3-2.6l-8.8-16.9
			c-0.6-0.1-2.1-0.3-2.7-0.5v17.6c0,0.5,0.4,0.9,2.2,1l2,0.3l0.2,1.1H57.2L57.3,450.2z M83.4,421c0-5.6-3.6-8.9-9.2-9h-2v17.9
			c0.3,0,1.4,0.2,1.9,0.2C79.9,429.9,83.4,426.9,83.4,421z"/>
		<path d="M100.5,437.8c0-9,6.4-15.8,15.3-15.8c7.1,0,11,4.3,11,9.5c0,0.6-0.1,1.2-0.2,1.8c-3.2,0-6,0-8.6-0.1
			c-4.3,0-8.9-0.2-9.5-0.2c-0.2,0.7-0.1,1.8-0.1,2.5c0,7.1,4,11.9,9.7,11.9c3.4,0,6.2-1.4,8.2-4.8l0.8,0.4c-2.6,5.9-6.8,9.2-13,9.2
			C106.2,452.2,100.5,446.1,100.5,437.8z M114.9,423.4c-3.1,0-5.8,3.4-6.4,8.5l10.9-0.1C119.4,427.5,118.3,423.4,114.9,423.4z"/>
		<path d="M132,450.6l-0.4-8.3l1.6,0.1l1.6,3.7c1.9,3.1,4,4.9,7.1,4.9c3.4,0,5.6-2,5.6-4.9c0-3.1-3.1-4.6-6.9-6
			c-4.5-1.8-8.5-3.6-8.5-9c0-5.3,4.3-8.9,10.7-8.9c2.5,0,4.7,0.5,6.4,1l2.7-0.6l0.3,8.8l-1.5,0.1l-3.9-6.5c-1-0.7-2.4-1.4-4.2-1.4
			c-3.1,0-4.9,1.7-4.9,4.5c0,3.1,2.7,4.2,6.8,5.6c4.5,1.8,8.9,3.7,8.9,9.2c0,4.9-4,9.4-11.9,9.4C137.8,452.2,134.5,451.5,132,450.6z"
			/>
		<path d="M157.7,437.8c0-9,6.4-15.8,15.3-15.8c7.1,0,11,4.3,11,9.5c0,0.6-0.1,1.2-0.2,1.8c-3.2,0-6,0-8.6-0.1
			c-4.3,0-8.9-0.2-9.5-0.2c-0.2,0.7-0.1,1.8-0.1,2.5c0,7.1,4,11.9,9.7,11.9c3.4,0,6.2-1.4,8.2-4.8l0.8,0.4c-2.6,5.9-6.8,9.2-13,9.2
			C163.5,452.2,157.7,446.1,157.7,437.8z M172.1,423.4c-3.1,0-5.8,3.4-6.4,8.5l10.9-0.1C176.7,427.5,175.5,423.4,172.1,423.4z"/>
		<path d="M204.6,446.6l-0.1-0.1c-2.7,3.1-5.4,5.5-8.8,5.5c-3.9,0-7.1-2.9-7.1-6.6c0-4.8,4.2-8,16.2-11l0.1-1.7
			c0.2-5.5-2.3-8.4-6.4-8.4c-2.3,0-4.2,0.8-4.2,1.6c0,0.5,1.8,1.9,1.8,3.8c0,1.8-1.5,3.4-3.8,3.4c-2.1,0-3.8-1.2-3.8-3.1
			c0-4.2,8.3-7.9,14.2-7.9c7.1,0,10,2.9,9.5,10.9l-0.5,11.7c-0.2,2.3,0.6,3.4,2.1,3.4c1,0,1.8-0.8,2.8-1.8l0.6,0.6
			c-1.6,2.1-4.4,5.3-7.5,5.3C206.9,452.1,205,450.2,204.6,446.6z M204.4,445.3l0.4-9.7c-7.2,1.7-9,4.3-9,7.3c0,2.8,1.8,4.5,4,4.5
			C201.6,447.5,202.9,446.8,204.4,445.3z"/>
		<path d="M220.4,450.2c1.9-0.2,2.6-0.3,2.6-1.1v-17.4c0-4-0.4-4.7-2.7-5.2l-1.4-0.3l0.1-0.8l11.6-3.2l-0.1,9.6h0.2
			c2.3-6.2,4.8-9.7,8.8-9.7c2.7,0,4.7,1.6,4.7,4.4c0,2-1.6,4.1-4,4.1c-2.3,0-3.8-1.5-4.3-3.8c-2.1,0.6-3.7,3.1-5.3,8v14.3
			c0,0.6,0.5,0.8,3.1,1l1.7,0.1l0.2,1h-16.3l0.2-1L220.4,450.2z"/>
		<path d="M246.2,438c0-9,6.4-15.9,15.6-15.9c6,0,10.2,2.7,10.2,6.5c0,2.4-1.8,4-3.9,4c-2.5,0-4.2-2.1-4-4.7
			c0-1.4,1.2-2.3,1.2-2.8c-0.2-0.8-1.7-1.6-3.4-1.6c-4.4,0-7.7,4.4-7.7,11.8c0,7.6,3.7,12.2,9.5,12.2c3.4,0,6-1.4,8.1-4.8l0.8,0.4
			c-2.6,5.9-6.8,9.2-12.8,9.2C251.9,452.2,246.2,446.2,246.2,438z"/>
		<path d="M275.7,450.2c1.9-0.2,2.5-0.3,2.5-1.1v-33.9c0-2.3-0.3-2.9-2.1-3.4l-2.1-0.7l0.1-0.8l11.6-3.1v20.3l0.1,0.1
			c3.1-2.6,6.8-5.5,11-5.5c2,0,3.8,0.7,5.3,2.1c1.6,1.6,2.1,4.2,2.1,7.3v17.6c0,0.5,0.3,0.8,3.2,1.1l0.9,0.1l0.2,1h-15.4l0.2-1
			l1.2-0.1c2.1-0.2,2.3-0.6,2.3-1.1v-15.8c0-4.7-1.9-6.2-5.4-6.2c-2.4,0-4.4,1-5.8,1.9v9.5v10.6c0,0.6,0.4,0.8,2.8,1l1.2,0.1l0.2,1
			h-15.5l0.2-1L275.7,450.2z"/>
		<path d="M75.4,490.4c-2,0-3.2,0-3.2,0v16.9c0,0,0.2,1.1,2.2,1l2.7,0.3l0.2,1.1H57.2l0.2-1.1l2.3-0.3
			c2.1-0.3,1.8-0.6,1.8-1.2v-35.6c0-0.5,0.6-0.7-2.4-1l-1.7-0.3l-0.2-1.1H92l0.2,13h-2.1l-0.6-1.8c-3-8.2-6.7-8.6-13.9-8.6l-3.5,0
			v14.9l2.2,0.1c4-0.1,6.7,0.6,7.7-2.3l0.6-1.5l1.8,0l-1.9,12.4H81C81.7,490.1,76.6,490.4,75.4,490.4z"/>
		<path d="M92.6,495.6c0-8.3,6.6-15.1,15.8-15.1c9.3,0,15.3,6.7,15.3,14.8c0,8.5-6.6,15.3-15.8,15.3
			C98.5,510.6,92.6,503.9,92.6,495.6z M115.3,496.3c0-6.4-1.2-10.6-3.2-12.7c-1-1-2.2-1.7-4-1.7c-4.7,0-7.2,5.6-7.2,12.9
			c0,6.4,1,10.7,3.2,12.9c1,1.1,2.4,1.7,4.1,1.7C112.7,509.3,115.3,503.7,115.3,496.3z"/>
		<path d="M148.1,505.1c-3.2,2.9-6.8,5.5-11,5.5c-2.1,0-3.6-0.7-5.2-2.2c-1.5-1.6-2.1-4.1-2.1-7.3l0.1-17.6
			c0-0.5-0.2-0.6-3.2-1l-1-0.1l-0.2-1h11.9l-0.2,18c-0.1,4.7,1.9,6.2,5.5,6.2c2.3,0,4.1-0.9,5.4-1.9v-10.1v-9.3
			c0-1.3-0.5-1.6-3.1-1.8l-1.2-0.1l-0.3-1h11.9v22c0,2.3,0.3,2.7,1.6,3.1l2.7,0.6l-0.1,0.7l-11.6,2.8l0.1-5.6H148.1z"/>
		<path d="M164.3,508.6c1.9-0.2,2.6-0.3,2.6-1.1v-17.4c0-4-0.4-4.7-2.7-5.2l-1.4-0.3l0.1-0.8l11.6-3.2l-0.1,5.4h0.2
			c3.1-2.6,6.8-5.5,11-5.5c2.1,0,3.8,0.7,5.2,2.1c1.6,1.6,2.2,4.2,2.2,7.3v17.6c0,0.5,0.2,0.8,3.1,1.1l0.9,0.1l0.2,1h-15.3l0.2-1
			l1.2-0.1c2.1-0.2,2.3-0.6,2.3-1.1v-15.7c0-4.9-2-6.3-5.5-6.3c-2.4,0-4.3,1-5.7,1.9v9.5v10.6c0,0.6,0.3,0.8,2.7,1l1.2,0.1l0.1,1H163
			l0.2-1L164.3,508.6z"/>
		<path d="M220.8,505c-2.5,3.1-6,5.6-9.9,5.6c-6.6,0-11.7-6-11.7-14c0-10.1,7.7-15.8,15.8-15.8c2.3,0,4.2,0.3,5.8,1
			h0.1V473c0-2.3-0.4-3-2.1-3.4l-2.7-0.7l0.1-0.7l12.1-2.5v38.6c0,2.3,0.3,2.7,1.6,3.1l2.7,0.6l-0.1,0.8l-11.6,1.9V505L220.8,505z
			 M220.9,503.4v-15.6c-1.8-3.2-4.4-5.5-6.9-5.5c-4.2,0-6.7,5.3-6.7,12.2c0,6.7,3.1,11.6,7.9,11.6
			C217.7,506.1,219.4,504.9,220.9,503.4z"/>
		<path d="M251.6,505l-0.1-0.1c-2.7,3.1-5.4,5.5-8.8,5.5c-3.9,0-7.1-2.9-7.1-6.6c0-4.8,4.2-8,16.2-11l0.1-1.7
			c0.2-5.5-2.3-8.4-6.4-8.4c-2.3,0-4.2,0.8-4.2,1.6c0,0.5,1.8,1.9,1.8,3.8c0,1.8-1.5,3.4-3.8,3.4c-2.1,0-3.8-1.2-3.8-3.1
			c0-4.2,8.3-7.9,14.2-7.9c7.1,0,10,2.9,9.5,10.9l-0.5,11.7c-0.2,2.3,0.6,3.4,2.1,3.4c1,0,1.8-0.8,2.8-1.8l0.6,0.6
			c-1.6,2.1-4.4,5.3-7.5,5.3C254,510.6,252.1,508.7,251.6,505z M251.5,503.7l0.4-9.7c-7.2,1.7-9,4.3-9,7.3c0,2.8,1.8,4.5,4,4.5
			C248.7,506,250,505.2,251.5,503.7z"/>
		<path d="M269.2,502l0.3-16.8l-5.3-0.1l1-2.2l4.7-3.6l5.8-4.5l1.1,0.1l-0.1,6.7h9.9l-0.8,3.4h-9.2l-0.3,15.8
			c-0.1,4.2,1.6,5.7,4.9,5.7c2.3,0,4-0.8,5.4-1.9l0.3,0.8c-2.8,2.9-6,5.2-9.9,5.2C271.8,510.6,269,507.9,269.2,502z"/>
		<path d="M291.5,508.6c1.9-0.2,2.6-0.3,2.6-1.1v-17.5c0-4-0.4-4.6-2.7-5.1l-1.4-0.3l0.1-0.8l11.5-3.2v26.9
			c0,0.6,0.4,0.8,3.1,1l0.9,0.1l0.2,1h-15.5l0.2-1L291.5,508.6z M292.7,471.6c0-2.3,1.7-4.6,4.6-4.6c3.1,0,4.7,2.3,4.7,4.6
			s-1.6,4.6-4.7,4.6C294.4,476.2,292.7,473.9,292.7,471.6z"/>
		<path d="M308,495.6c0-8.3,6.6-15.1,15.8-15.1c9.3,0,15.3,6.7,15.3,14.8c0,8.5-6.6,15.3-15.8,15.3
			C313.9,510.6,308,503.9,308,495.6z M330.7,496.3c0-6.4-1.2-10.6-3.2-12.7c-1-1-2.2-1.7-4-1.7c-4.7,0-7.2,5.6-7.2,12.9
			c0,6.4,1,10.7,3.2,12.9c1,1.1,2.4,1.7,4.1,1.7C328.1,509.3,330.7,503.7,330.7,496.3z"/>
		<path d="M343.3,508.6c1.9-0.2,2.6-0.3,2.6-1.1v-17.4c0-4-0.4-4.7-2.7-5.2l-1.4-0.3l0.1-0.8l11.6-3.2l-0.1,5.4h0.2
			c3.1-2.6,6.8-5.5,11-5.5c2.1,0,3.8,0.7,5.2,2.1c1.6,1.6,2.2,4.2,2.2,7.3v17.6c0,0.5,0.2,0.8,3.1,1.1l0.9,0.1l0.2,1h-15.3l0.2-1
			l1.2-0.1c2.1-0.2,2.3-0.6,2.3-1.1v-15.7c0-4.9-2-6.3-5.5-6.3c-2.4,0-4.3,1-5.7,1.9v9.5v10.6c0,0.6,0.3,0.8,2.7,1l1.2,0.1l0.1,1H342
			l0.2-1L343.3,508.6z"/>
	</g>
	<path fill="url(#RadGradient)" d="M384.3,119.4c-2.2-2.4-8.8,7.7-24,7.1c-3.4-0.1-5.7-1.1-7.4-2.4C335.7,52.9,271.6,0,195.1,0
		C120.6,0,57.9,50.1,38.7,118.5c-0.7,0.3-1.4,0.5-2.2,0.5c-5.4-0.1-9.9-2.6-12.2-6.7c-2.4-4.4-5.6-5.9-7.6-1.5
		c-0.8,1.7-2.5,2.8-4.4,2.9c-6.5,0.2-12,2.3-12.2,7.9c-0.1,3.3,1.4,3.3,3.2,2.5c2.8-1.3,5.9-1.3,8.7,0c1.2,0.6,2.2,1,3.2,1.2
		c1.7,0.3,3.3,0.9,4.6,2c6.5,5.5,7.7,17,9.9,19.3c1.1,1.1,2.2,2.1,3.5,3.1c-0.3,4.3-0.6,8.6-0.6,12.9c0,89.7,72.8,162.5,162.5,162.5
		c89.7,0,162.5-72.8,162.5-162.5c0-5.5-0.3-10.9-0.8-16.3c4.5-1.2,12.8-4.2,14.7-5.4C380.1,135.4,386.5,121.9,384.3,119.4z
		 M353.1,155c0.3,2,0,5.7-0.4,9.9c0,0,0.3,2.8-0.6,6.5c-14.2-0.8-19.6,3.4-25.8,3.8c15.4-5.3,22.4-24.4,22.4-24.4
		c0.6-1.4,1-2.5,1.3-3.5c0.7-0.1,1.5-0.2,2.3-0.3C352.8,149.9,353.1,152.6,353.1,155z M289.1,181.3c0,0.1,0,0.1,0,0.1
		c-30.8,7.2-50.4,32.4-56.7,51.5c-5.4-4.8-9.4-9-11.9-11.2c-1.3-1.3-2.8-2.7-4.3-4l-11.5-9.4c1.1-0.9,2.1-1.7,3.1-2.6
		c2.2-1.9,4.4-3.6,6.4-5.3c65.8-44.8,58.2-73.2,53.5-64.9c-5.3,9.4-12.2,23.2-26.6,30.7c0.4-3.4,0.4-7.1-0.2-11.4
		c-2.4-18.7-16.2-26.4-29.6-33.2c-1.9-0.9-3.6,1.5-2,2.9c8,7.4,43.1,30.5-8.5,72.8c-1.5,1.2-3,2.5-4.6,3.8
		c-22.1-19.2-33.3-31.4-32.7-50c0.9-28.5,29.6-41.1,56.7-51.2c13-4.9,33-10.3,33.3-22.7c-15.4,6.6-22.8,7.6-32.6,11.3
		c-5.3,2-11,4.1-16.7,6.5c1-1.6,2.4-3.3,5.1-4.8c14.6-4.2,24.5-16.6,27.8-22.6c9.4,2.7,18.1,6.7,22.1,12.7c1.6,2.3,4,2.6,5.8,3.1
		c1.4,0.4,2.7,1.2,3.7,2.2c3.5,5.3,8.2,20.3,5,28.1c-2,5.1,2.4,3,5.1-0.3c2.7-3.3,4.8-7.3,3.3-14.5c1.3-0.1,2.5,0.9,4.5,5.5
		c3.2,7.2,14.3,6.5,15.7,10.1c0.2,0.3,0.2,1.1,0.2,1.8c-2.1,1.1-4.5,2.1-6.3,2.8c-3,1.1-5.5,4.2-0.4,4.4c3.9,0.2,6.6,0.6,11.7,1.8
		c0.1,0.3,0.2,0.6,0.2,0.9c0.5,4,1.7,9.1,8.1,11c3.3,1,5.5,4,6,7.4c0.8,5.6,6.6,16.1,7.9,13.6c1.5-2.2,4.7-6.3,12.4-9
		C334.6,174.1,303.9,176.5,289.1,181.3z M275,272.4c-15.1-4.2-26.4-14.2-33.3-22.6c5.4,3.7,11.5,7.3,17.8,9.9l-0.1,0
		C263.8,261.7,269.6,266.1,275,272.4z M284.7,286.9c-1.4,0.9-2.9,1.8-4.5,2.8c-10.2-2.4-29.3-8.3-40.4-25.4c-0.9-3.2-1.5-6.3-1.8-9.5
		c8.2,9.8,22.2,20,41.3,23.3C281.3,280.8,283.1,283.8,284.7,286.9z M285.7,278.8c3.1,0.3,6.4,0.3,9.8,0.2c-2.1,1.7-4.3,3.5-6.9,5.3
		C287.7,282.4,286.7,280.6,285.7,278.8z M113.9,278.6c18.8-3.3,32.6-13.5,40.7-23.3c-0.3,3.2-0.8,6.4-1.7,9.5
		c-10.9,17.1-29.7,23-39.7,25.4c-1.5-0.9-3-1.9-4.4-2.8C110.2,284.3,112,281.4,113.9,278.6z M104.9,284.9c-2.8-1.9-5.2-3.7-7.4-5.4
		c3.5,0.2,6.9,0.1,10.2-0.2C106.7,281.2,105.7,283,104.9,284.9z M68.3,249.1C63.6,242.5,58,231,54,221c0.4-17.6,15.4-40.1,49.9-32.9
		c21.2,4.4,43.7,26.3,49.4,51.4c-18,14.7-46.1,30.2-80.1,16.1C71.6,253.5,70,251.4,68.3,249.1z M42.6,154c0.7,0.2,1.4,0.3,2.1,0.3
		c2.7,5.7,9.3,17.1,20.5,21c-5.6-0.4-10.6-4.1-22.4-3.9C42.4,163.9,42.5,157.7,42.6,154z M50.5,152.2c0.2-0.2,0.4-0.3,0.5-0.5
		c0.4-0.4,0.9-0.7,1.4-1c1,0,1.8-0.2,2.5-0.5c0.2,0,0.4,0,0.6,0c4.8,0.8,10.1-0.7,11.7-4.4c6.9,0.7,18.4,1.7,17.2-0.4
		c-1.9-3.3-2.6-9.7-2-14.3c2.8,5.3,6.7,9.2,19.1,9.2c11.6,0,18.9-0.5,25.6,1.6c5.1,7.5,11.2,14.1,16.8,19.8c-2-1.2-13.3-3.4-17.3-3.8
		c-4-0.4-7.9-0.2-4.4,1.4c12.6,3.4,31.6,19.4,45.2,31.1c5.4,6.1,11.9,12.2,19.3,18.7c-3.3,2.8-6.7,5.8-10.4,9.1
		c-1.4,1.3-2.8,2.5-4,3.8c-2.4,2.1-6.6,6.5-12.2,11.6c-6.4-19.7-26.6-45.7-58.5-52.1c0-0.1,0-0.1,0-0.2
		C87.8,176.7,59.5,174.4,50.5,152.2z M214,63.6c4.5,0.4,9.8,1,15.3,2.1c-1.8,7-3.2,9.3-18.5,15.7C212.1,75.2,213.4,67.5,214,63.6z
		 M174,73.1c2.7-1.4,11.8,0.3,14.7,1.4c1.4-0.6,4.4-1.7,5-2.5c1.6-2,3.8-3.6,6.4-3.8c1.5-0.1,2.9-0.6,4-1.8c0,0,0.1-0.1,0.1-0.1
		c-0.7,6.7-2,16.7-14.5,29.8c-14.2-1.9-22.7-10.6-24.9-18.1C167.6,76.4,171.1,74.6,174,73.1z M159.1,85.2
		c3.8,9.6,14.1,13.5,20.9,15.3c0,0,2,1.4,8.6,1.8c-19.6,10.3-36.4,24.8-37.1,48.5c0,1.3,0,2.6,0,3.9c-19.4-16.6-14.6-44.9-7.9-61.7
		c0.9-0.3,1.8-0.9,2.8-1.8c1.8-1.7,4.3-2.6,6.8-2.7C155.2,88.3,157.1,87.5,159.1,85.2z M132.4,134.9c-10.5-11.2-11.9-24.5-11-34.6
		c5.2-6.2,10.2-10.1,13.4-8.9c0.7,0.3,1.4,0.5,2.1,0.8C130.9,107.9,131.5,128.6,132.4,134.9z M112.8,112.3c0.7-1.1,1.3-2.1,2-3.1
		c0.5,7.9,2.8,15.4,6.2,22.2c-26.6,3.3-34-0.2-35-6.2c2.3-1.4,4.6-1.9,5.8-1.8C95.6,124.1,105.2,124.5,112.8,112.3z M160.4,272.4
		c4.2,9.2,12.5,18.2,28.6,28.2c-0.4,0.3-0.8,0.7-1.2,1c-6.9,4.9-12.7,9.6-30.2,7.5C150.4,288.4,156.2,277.3,160.4,272.4z
		 M230.6,270.1c3.8,3.4,12.4,14.2,5,36.5c-3.7,1-7.6,2.3-12.5,3.4c-4.4-0.1-7.5-0.8-10.2-1.8c-4.9-2.7-9.3-5.4-13.2-8.1
		C214.4,289.5,224.8,279.3,230.6,270.1z M224.2,253.9c0.2,10-15.4,28.4-30.2,42.2c-22.5-17.2-26.3-33.4-26.5-42.2
		c-0.2-8.7,5.1-17.7,16.2-27.6c4.2-3.7,8-7,11.6-10.1l12.8,10.6C219.1,236.5,224,245.4,224.2,253.9z M133.6,260.3l-0.1,0
		c6.2-2.7,12.3-6.2,17.6-9.9c-6.8,8.4-17.9,18.4-32.8,22.6C123.6,266.8,129.3,262.3,133.6,260.3z M149.6,279.4
		c-2,6.8-2,16.1,3.2,28.6c-12.4-3.5-23.5-8.5-32.9-13.8C133.7,290,143.1,285.1,149.6,279.4z M243.1,278.8c6.6,5.7,16,10.5,29.8,14.8
		c-10.5,5.1-22.7,9.1-32.2,11.7C245.1,293.9,245,285.2,243.1,278.8z M64,82.7c0.4-0.7,0.8-1.4,1.2-2.1c0.9-1.4,1.7-2.8,2.6-4.2
		c3.5-5.3,9.3-13.1,13.4-17.9c1.4-1.6,2.8-3.2,4.2-4.8c2.2-2.4,4.5-4.7,6.9-6.9c3.6-3.3,7.1-6.1,11.3-8.7c6.8-4.2,8.7-5.4,13.1-7.7
		c5.4-2.8,8-4.1,12.7-6.2c0,0,23.4-11.5,54.1-13.4c6-0.4,40-3.5,76.6,15.8c10,5.3,20.9,13.1,29.1,19.2c2,1.5,4,3,6,4.6
		c0,0,0.1,0,0.1,0.1c5.9,4.8,11.3,9.9,16.3,15.4c6.7,7.3,12.8,15.3,18.2,24.2c3.1,5.1,6,10.6,8.6,16.5c0,0,0.8,1.7,2,4.5
		c-5.3-2-10.5-5.5-20.4-10.4c-2.8-1.4-7.7-4.6-7.5-7.7c0.5-6.2,0.2-9.4-1-12.7c-2.1,0.7-6.4,1.9-8.4,1c-1.2-0.5-2-1.2-2.3-3.4
		c-1.5-4.8-1.9-11.3-17.3-14.1c-1.1-0.2-2.1-0.6-3.1-1.1c-3.1-1.7-8.4-3.6-10.3-3.2c-2.1,0.3-3.8-4.5-5.5-5.7
		c-8.1-5.4-15-5.5-21.5-5.2c-4.7-4-14.8-5.2-16.5-5.4c-1.6-0.2-6-4.8-9.8-6.6c-1.9-0.9-7,2.9-8.1,2.1c-4.4-3.1-13.9-1.2-15.7-5.6
		c-3.5-0.9-7.8,4.3-10.2,6.4c-2.2,1.9-13.3-2.5-14.3-5.7c-9.7-0.1-17.7,9.6-22.5,17.5c-2.9-0.3-6.3,0-8.3,1.6
		c-1.4,1.1-3.1,3.2-4.9,5.5c-3.7,0.5-7.8,1.5-11.8,4.1c-7.8,5.2-6.9,10.2-16.4,14.4c-3.4,0.2-6.6-0.1-9.1-1.2
		c-4.7-2.1-3.3,1.8-0.5,4.6c-8.4,7.5-3.5,11.1-21.8,15.5c-4.5,1.1-9.4,9.6-12,10.1c-3.2,0.7-6.2,1.8-8.9,3.3c3.1-8.8,6-15.6,6-15.6
		C59.2,92.3,63.3,83.9,64,82.7z M47.8,203.1c-0.4-1.4-0.8-3.8-1.1-5.3c-1.7-6.6-2.7-13.3-3.3-19.6c13.2-1.5,19.6,3.8,27,5
		C57.2,189.5,50.7,202.6,50,210l-0.3-0.8C49.2,207.8,48.2,204.6,47.8,203.1z M80,263.4c9.8,3.7,26,3.6,39.2,1.1
		c-2.5,2.6-5.5,6-8.4,10c-6.4,0.9-13.4,0.7-20.9-1c-2.1-1.8-3.2-2.9-3.2-2.9C84.4,268.2,82.2,265.9,80,263.4z M305.3,269.8
		c-1.1,1.1-2.3,2.3-3.5,3.5c-6.9,1.4-13.4,1.5-19.3,0.6c-2.9-4-5.9-7.4-8.5-10c12.3,2.3,27.2,2.6,37.3-0.2
		C309.1,265.9,307.1,268,305.3,269.8z M320.2,254.3c-0.4,0.5-0.9,0.9-1.3,1.4c-33.7,13-61.6-2.3-79.6-16.7
		c5.8-25.1,28.7-47,50.1-51.4c36.1-7.5,51.1,16.6,50.6,34.4c0.1-0.2,0.2-0.3,0.3-0.5c-1.1,3.3-2.4,6.4-4.1,9.3
		C329.8,241.4,327.1,247.1,320.2,254.3z M346.5,200.3c-0.4,1.4-0.8,2.7-1.2,4.1c-0.4,1.4-0.8,2.7-1.2,4c-1.2-7.5-7.9-19.9-20.7-25.7
		c7.1-2,14.2-6.9,27.5-4.9c-0.4,2.8-0.8,5.5-1.4,8.5C349.6,186.3,348,194.8,346.5,200.3z"/>
</svg>
